<svg class="animated" id="freepik_stories-valentines-day-teddy-bear" xmlns="http://www.w3.org/2000/svg" viewBox="0 0 500 500" version="1.1" xmlns:xlink="http://www.w3.org/1999/xlink" xmlns:svgjs="http://svgjs.com/svgjs"><style>svg#freepik_stories-valentines-day-teddy-bear:not(.animated) .animable {opacity: 0;}svg#freepik_stories-valentines-day-teddy-bear.animated #freepik--background-complete--inject-83 {animation: 1s 1 forwards cubic-bezier(.36,-0.01,.5,1.38) fadeIn,3s Infinite  linear wind;animation-delay: 0s,1s;}svg#freepik_stories-valentines-day-teddy-bear.animated #freepik--Shadow--inject-83 {animation: 1s 1 forwards linear fadeIn,1.5s Infinite  linear floating;animation-delay: 0s,1s;}svg#freepik_stories-valentines-day-teddy-bear.animated #freepik--teddy-bear--inject-83 {animation: 1s 1 forwards cubic-bezier(.36,-0.01,.5,1.38) fadeIn,1.5s Infinite  linear floating;animation-delay: 0s,1s;}svg#freepik_stories-valentines-day-teddy-bear.animated #freepik--Hearts--inject-83 {animation: 1s 1 forwards cubic-bezier(.36,-0.01,.5,1.38) fadeIn,1.5s Infinite  linear heartbeat;animation-delay: 0s,1s;}            @keyframes fadeIn {                0% {                    opacity: 0;                }                100% {                    opacity: 1;                }            }                    @keyframes wind {                0% {                    transform: rotate( 0deg );                }                25% {                    transform: rotate( 1deg );                }                75% {                    transform: rotate( -1deg );                }            }                    @keyframes floating {                0% {                    opacity: 1;                    transform: translateY(0px);                }                50% {                    transform: translateY(-10px);                }                100% {                    opacity: 1;                    transform: translateY(0px);                }            }                    @keyframes heartbeat {                0% {                    transform: scale(1);                }                10% {                    transform: scale(1.1);                }                30% {                    transform: scale(1);                }                40% {                    transform: scale(1);                }                50% {                    transform: scale(1.1);                }                60% {                    transform: scale(1);                }                100% {                    transform: scale(1);                }            }        </style><g id="freepik--background-complete--inject-83" class="animable animator-active" style="transform-origin: 250px 226.87px;"><rect y="382.4" width="500" height="0.25" style="fill: rgb(235, 235, 235); transform-origin: 250px 382.525px;" id="elq2yk4w0unqa" class="animable"></rect><rect x="423.67" y="398.49" width="26.23" height="0.25" style="fill: rgb(235, 235, 235); transform-origin: 436.785px 398.615px;" id="el50ou0qtv37u" class="animable"></rect><rect x="322.53" y="395.24" width="34.23" height="0.25" style="fill: rgb(235, 235, 235); transform-origin: 339.645px 395.365px;" id="el0r84irn401gc" class="animable"></rect><rect x="389.33" y="389.21" width="26.44" height="0.25" style="fill: rgb(235, 235, 235); transform-origin: 402.55px 389.335px;" id="elkstuxd5am7" class="animable"></rect><rect x="67.7" y="390.89" width="43.19" height="0.25" style="fill: rgb(235, 235, 235); transform-origin: 89.295px 391.015px;" id="elq977nscmky" class="animable"></rect><rect x="52.46" y="390.89" width="6.33" height="0.25" style="fill: rgb(235, 235, 235); transform-origin: 55.625px 391.015px;" id="elxivh2t6ayio" class="animable"></rect><rect x="131.47" y="395.11" width="56.2" height="0.25" style="fill: rgb(235, 235, 235); transform-origin: 159.57px 395.235px;" id="el1msw0zxeqro" class="animable"></rect><path d="M237,337.8H43.91a5.71,5.71,0,0,1-5.7-5.71V60.66A5.71,5.71,0,0,1,43.91,55H237a5.71,5.71,0,0,1,5.71,5.71V332.09A5.71,5.71,0,0,1,237,337.8ZM43.91,55.2a5.46,5.46,0,0,0-5.45,5.46V332.09a5.46,5.46,0,0,0,5.45,5.46H237a5.47,5.47,0,0,0,5.46-5.46V60.66A5.47,5.47,0,0,0,237,55.2Z" style="fill: rgb(235, 235, 235); transform-origin: 140.46px 196.4px;" id="el0u5m96hm8hjg" class="animable"></path><path d="M453.31,337.8H260.21a5.72,5.72,0,0,1-5.71-5.71V60.66A5.72,5.72,0,0,1,260.21,55h193.1A5.71,5.71,0,0,1,459,60.66V332.09A5.71,5.71,0,0,1,453.31,337.8ZM260.21,55.2a5.47,5.47,0,0,0-5.46,5.46V332.09a5.47,5.47,0,0,0,5.46,5.46h193.1a5.47,5.47,0,0,0,5.46-5.46V60.66a5.47,5.47,0,0,0-5.46-5.46Z" style="fill: rgb(235, 235, 235); transform-origin: 356.75px 196.4px;" id="el0m0s74c3nw9g" class="animable"></path><rect x="69.67" y="73.27" width="362.41" height="225.41" style="fill: rgb(250, 250, 250); transform-origin: 250.875px 185.975px;" id="elbobp2csbk4u" class="animable"></rect><polygon points="307.38 298.68 247 298.68 296.58 73.27 356.96 73.27 307.38 298.68" style="fill: rgb(255, 255, 255); transform-origin: 301.98px 185.975px;" id="elaz5l89dl26" class="animable"></polygon><polygon points="341.25 298.68 321.06 298.68 370.63 73.27 390.82 73.27 341.25 298.68" style="fill: rgb(255, 255, 255); transform-origin: 355.94px 185.975px;" id="elknid4eeuz" class="animable"></polygon><polygon points="154.04 298.68 114.79 298.68 164.36 73.27 203.62 73.27 154.04 298.68" style="fill: rgb(255, 255, 255); transform-origin: 159.205px 185.975px;" id="elix9hhqjzqcc" class="animable"></polygon><path d="M65.29,68.05V303.89H436.45V68.05ZM428.57,296.32H73.17V75.63h355.4Z" style="fill: rgb(235, 235, 235); transform-origin: 250.87px 185.97px;" id="el14detuittooa" class="animable"></path><rect x="238.3" y="72.45" width="25.14" height="228.39" style="fill: rgb(235, 235, 235); transform-origin: 250.87px 186.645px;" id="elmjde14lgql" class="animable"></rect><rect x="69.67" y="231.74" width="362.41" height="8.77" style="fill: rgb(235, 235, 235); transform-origin: 250.875px 236.125px;" id="ely296494tptl" class="animable"></rect><rect x="242.15" y="72.45" width="2.27" height="228.39" style="fill: rgb(224, 224, 224); transform-origin: 243.285px 186.645px;" id="el9gp9teya0k" class="animable"></rect><rect x="258.64" y="72.45" width="0.61" height="228.39" style="fill: rgb(240, 240, 240); transform-origin: 258.945px 186.645px;" id="elbj0454l1q0w" class="animable"></rect><path d="M59.56,71.22V362.78A8.39,8.39,0,0,0,68.11,371h0a26,26,0,0,0,25.52-30.63L78.47,257.79c34.11-44.71,59.4-108.43,80.1-182A10.05,10.05,0,0,0,148.88,63H68.11A8.39,8.39,0,0,0,59.56,71.22Z" style="fill: rgb(230, 230, 230); transform-origin: 109.255px 217px;" id="elze3brbv9bs" class="animable"></path><path d="M77.07,265H62.55a7.27,7.27,0,0,1-7.25-7.25h0a7.27,7.27,0,0,1,7.25-7.25H77.07a7.27,7.27,0,0,1,7.25,7.25h0A7.27,7.27,0,0,1,77.07,265Z" style="fill: rgb(245, 245, 245); transform-origin: 69.81px 257.75px;" id="elcpj1yypsxnk" class="animable"></path><path d="M440.44,71.22V362.78a8.39,8.39,0,0,1-8.55,8.22h0a26,26,0,0,1-25.52-30.63l15.16-82.58c-34.11-44.71-59.4-108.43-80.1-182A10.05,10.05,0,0,1,351.12,63h80.77A8.39,8.39,0,0,1,440.44,71.22Z" style="fill: rgb(230, 230, 230); transform-origin: 390.745px 217px;" id="elzivvnmg8xpr" class="animable"></path><path d="M422.93,265h14.52a7.27,7.27,0,0,0,7.25-7.25h0a7.27,7.27,0,0,0-7.25-7.25H422.93a7.27,7.27,0,0,0-7.25,7.25h0A7.27,7.27,0,0,0,422.93,265Z" style="fill: rgb(245, 245, 245); transform-origin: 430.19px 257.75px;" id="el4ph0884u5ga" class="animable"></path></g><g id="freepik--Shadow--inject-83" class="animable" style="transform-origin: 250px 416.24px;"><ellipse id="freepik--path--inject-83" cx="250" cy="416.24" rx="193.89" ry="11.32" style="fill: rgb(245, 245, 245); transform-origin: 250px 416.24px;" class="animable"></ellipse></g><g id="freepik--teddy-bear--inject-83" class="animable" style="transform-origin: 250px 281.046px;"><path d="M343.09,355.22c0,46.17-41.68,54.12-93.09,54.12s-93.09-7.95-93.09-54.12,41.68-94.61,93.09-94.61S343.09,309.05,343.09,355.22Z" style="fill: rgb(125, 239, 156); transform-origin: 250px 334.975px;" id="elthhp0sean7p" class="animable"></path><path d="M196.74,374.88c-21.59-17.72-32.7-15-32.7-15s-9.51-27.63-32.86-24.63c-33.11,4.26-28.92,74.29-3.34,81.19s80.6-3.5,87-9.73S205.88,382.39,196.74,374.88Z" style="fill: rgb(125, 239, 156); transform-origin: 161.928px 376.87px;" id="el5d5xblgepko" class="animable"></path><g id="elyz290p2bbtf"><ellipse cx="127.03" cy="381.87" rx="15.48" ry="31.1" style="fill: rgb(255, 255, 255); opacity: 0.2; transform-origin: 127.03px 381.87px; transform: rotate(-9.84deg);" class="animable"></ellipse></g><path d="M303.26,374.88c21.59-17.72,32.7-15,32.7-15s9.51-27.63,32.86-24.63c33.11,4.26,28.92,74.29,3.34,81.19s-80.6-3.5-87.05-9.73S294.12,382.39,303.26,374.88Z" style="fill: rgb(125, 239, 156); transform-origin: 338.04px 376.87px;" id="el29ce9j0d1tm" class="animable"></path><g id="elq0ghpkf5dwp"><ellipse cx="372.97" cy="381.87" rx="31.1" ry="15.48" style="fill: rgb(255, 255, 255); opacity: 0.2; transform-origin: 372.97px 381.87px; transform: rotate(-80.16deg);" class="animable"></ellipse></g><g id="elb46ucm3kx4f"><path d="M310.39,353.18c0,41.52-26.14,48.68-58.39,48.68s-58.39-7.16-58.39-48.68S219.76,268.1,252,268.1,310.39,311.66,310.39,353.18Z" style="fill: rgb(255, 255, 255); opacity: 0.2; transform-origin: 252px 334.98px;" class="animable"></path></g><g id="elxtot4x27n89"><path d="M250,260.61c-26.16,0-49.53,16.86-65,40.65,14.28,22.41,38.07,37.07,65,37.07s50.72-14.66,65-37.07C299.53,277.47,276.16,260.61,250,260.61Z" style="opacity: 0.2; transform-origin: 250px 299.47px;" class="animable"></path></g><g id="ele5irr434zoh"><path d="M334.84,331.11a35.5,35.5,0,0,1-7.41,16.29C307,372,279.68,381,249.69,381c-28.16,0-54-7.29-73.94-28.83a36,36,0,0,1-9-21.08Z" style="opacity: 0.2; transform-origin: 250.795px 356.045px;" class="animable"></path></g><g id="el1mi51hu8guv"><ellipse cx="190.11" cy="180.21" rx="32.93" ry="38.74" style="fill: rgb(125, 239, 156); transform-origin: 190.11px 180.21px; transform: rotate(-83.94deg);" class="animable"></ellipse></g><path d="M193.58,147.47c-11.8-1.58-35.36-3.25-42.69,5-5.33,6,2.11,9.12,2.11,9.12s-11,11.77,2.56,15.33S193.58,147.47,193.58,147.47Z" style="fill: rgb(125, 239, 156); transform-origin: 171.185px 161.68px;" id="el40jdrl1f8fm" class="animable"></path><g id="eld6bbks74tvg"><ellipse cx="192.84" cy="191.06" rx="21.71" ry="25.54" style="fill: rgb(255, 255, 255); opacity: 0.3; transform-origin: 192.84px 191.06px; transform: rotate(-83.94deg);" class="animable"></ellipse></g><g id="elnj8ntd2m1wn"><ellipse cx="321.89" cy="194.2" rx="32.93" ry="38.74" style="fill: rgb(125, 239, 156); transform-origin: 321.89px 194.2px; transform: rotate(-83.94deg);" class="animable"></ellipse></g><path d="M362.5,184.17a6.3,6.3,0,0,0,1.62-6.81c-3.29-9.57-23.43-15.1-39.56-16l35.17,35C370.47,195.25,362.5,184.17,362.5,184.17Z" style="fill: rgb(125, 239, 156); transform-origin: 344.952px 178.86px;" id="elfxp7awhx0h" class="animable"></path><g id="elp0c5xi1w5k"><ellipse cx="316.94" cy="204.23" rx="21.71" ry="25.54" style="fill: rgb(255, 255, 255); opacity: 0.3; transform-origin: 316.94px 204.23px; transform: rotate(-83.94deg);" class="animable"></ellipse></g><path d="M155.67,237.37l-1-.11A70.59,70.59,0,0,1,158.76,220l.94.36A70,70,0,0,0,155.67,237.37Z" style="fill: rgb(125, 239, 156); transform-origin: 157.185px 228.685px;" id="el0wylj953k2fl" class="animable"></path><path d="M154.44,249.63c-.16-2.43-.2-4.9-.12-7.32l1,0c-.08,2.39,0,4.82.12,7.22Z" style="fill: rgb(125, 239, 156); transform-origin: 154.86px 245.97px;" id="elwn6bv1qjah" class="animable"></path><g id="el66m95taqeuj"><ellipse cx="249.62" cy="247.34" rx="78.19" ry="91.97" style="fill: rgb(125, 239, 156); transform-origin: 249.62px 247.34px; transform: rotate(-83.94deg);" class="animable"></ellipse></g><g id="elbz7uub37pam"><ellipse cx="248.03" cy="262.32" rx="58.97" ry="69.7" style="fill: rgb(255, 255, 255); opacity: 0.1; transform-origin: 248.03px 262.32px; transform: rotate(-83.94deg);" class="animable"></ellipse></g><g id="eldawknjlwknl"><path d="M191.26,191.87c1.49,1.56.42,5-2.39,7.72s-6.32,3.62-7.82,2.06-.42-5,2.39-7.72S189.76,190.31,191.26,191.87Z" style="fill: rgb(255, 255, 255); opacity: 0.1; transform-origin: 186.153px 196.76px;" class="animable"></path></g><g id="el3j1npz054nm"><path d="M329.73,165.4c-.07,1.08-3.28,1.75-7.17,1.5s-7-1.32-6.93-2.4,3.28-1.76,7.18-1.51S329.8,164.32,329.73,165.4Z" style="fill: rgb(255, 255, 255); opacity: 0.1; transform-origin: 322.68px 164.945px;" class="animable"></path></g><g id="el8h3o2mdecpk"><path d="M201.3,193.55c1,1,.58,2.93-.86,4.31s-3.37,1.68-4.33.68-.58-2.94.85-4.31S200.34,192.55,201.3,193.55Z" style="fill: rgb(255, 255, 255); opacity: 0.1; transform-origin: 198.714px 196.046px;" class="animable"></path></g><path d="M269.73,162.82s2.6-9.46-12.42-8.43c-15.25,1.05-25.42,11.25-34.52,20.59,0,0,28.37,13.83,59.45.43C284.77,159.48,269.73,162.82,269.73,162.82Z" style="fill: rgb(125, 239, 156); transform-origin: 252.658px 167.784px;" id="el92o6l235x46" class="animable"></path><g id="elpg5sj95lcdr"><path d="M248.77,256.26h-.1a1,1,0,0,1-.86-1.07l8.27-77.93a1,1,0,0,1,1.93.2l-8.27,77.94A1,1,0,0,1,248.77,256.26Z" style="fill: rgb(38, 50, 56); opacity: 0.2; transform-origin: 252.908px 216.431px;" class="animable"></path></g><g id="ellayys58rlbc"><path d="M234.11,244.18c-.5,4.72-8.75,7.7-18.42,6.68s-17.12-5.68-16.62-10.4,8.75-7.7,18.43-6.67S234.61,239.47,234.11,244.18Z" style="fill: rgb(255, 255, 255); opacity: 0.3; transform-origin: 216.59px 242.323px;" class="animable"></path></g><g id="elo0qipu6crhm"><ellipse cx="282.96" cy="249.37" rx="8.58" ry="17.62" style="fill: rgb(255, 255, 255); opacity: 0.3; transform-origin: 282.96px 249.37px; transform: rotate(-83.94deg);" class="animable"></ellipse></g><path d="M231.22,236a7.15,7.15,0,1,1-6.36-7.87A7.16,7.16,0,0,1,231.22,236Z" style="fill: rgb(38, 50, 56); transform-origin: 224.11px 235.241px;" id="el6seag9zlyfr" class="animable"></path><path d="M283.69,241.26a7.15,7.15,0,1,1-6.36-7.87A7.15,7.15,0,0,1,283.69,241.26Z" style="fill: rgb(38, 50, 56); transform-origin: 276.58px 240.501px;" id="elj9px8ucrmea" class="animable"></path><g id="el26vd8bqxs3a"><ellipse cx="246.62" cy="275.58" rx="38.49" ry="49.37" style="fill: rgb(255, 255, 255); transform-origin: 246.62px 275.58px; transform: rotate(-83.94deg);" class="animable"></ellipse></g><path d="M271.76,260.85c-.67,6.3-11.65,10.3-24.53,8.93s-22.77-7.58-22.1-13.88,8.07-11.2,24.53-8.92S272.43,254.56,271.76,260.85Z" style="fill: rgb(38, 50, 56); transform-origin: 248.453px 258.23px;" id="elzqcz04om9rr" class="animable"></path><path d="M250.45,288.14a47.36,47.36,0,0,1-5.13-.28c-8.69-.92-16.29-4-20.33-8.25a1.67,1.67,0,1,1,2.41-2.3c3.46,3.63,10.46,6.41,18.27,7.24s15.23-.42,19.38-3.24a1.66,1.66,0,1,1,1.87,2.75C263.06,286.7,257.12,288.14,250.45,288.14Z" style="fill: rgb(38, 50, 56); transform-origin: 246.045px 282.422px;" id="elt9kc1v8s5co" class="animable"></path><path d="M245.49,287.88h-.17a1.68,1.68,0,0,1-1.49-1.84l2.67-25.16a1.67,1.67,0,1,1,3.32.36l-2.67,25.15A1.68,1.68,0,0,1,245.49,287.88Z" style="fill: rgb(38, 50, 56); transform-origin: 246.827px 273.62px;" id="eliqflklfycsa" class="animable"></path><path d="M294.59,302.33h0c-14.32-10.16-31.85-4.67-45,5.93-15.65-6.3-36-6.12-46.76,7.77a38.07,38.07,0,0,0-7.53,28.71A39.59,39.59,0,0,0,210.85,371l33,24.39a24.87,24.87,0,0,0,34.78-5.2L303,357.19a39.52,39.52,0,0,0,7.2-29.6A38,38,0,0,0,294.59,302.33Z" style="fill: rgb(125, 239, 156); transform-origin: 252.796px 348.606px;" id="elf0u3lsodkok" class="animable"></path><g id="elj6o51xis4t"><path d="M294.59,302.33h0c-14.32-10.16-31.85-4.67-45,5.93-15.65-6.3-36-6.12-46.76,7.77a38.07,38.07,0,0,0-7.53,28.71A39.59,39.59,0,0,0,210.85,371l33,24.39a24.87,24.87,0,0,0,34.78-5.2L303,357.19a39.52,39.52,0,0,0,7.2-29.6A38,38,0,0,0,294.59,302.33Z" style="opacity: 0.5; transform-origin: 252.796px 348.606px;" class="animable"></path></g><path d="M290.55,324.91c.21-3.62,6-5.61,10.89-4.79h0c12-8.51,17.73-21.35,19.33-25.48a1.38,1.38,0,0,1,1.86-.76c30.19,13.17,8.06,57.59-14.45,60.59-8.05,1.07-17.27-16-11.72-26.52C296.46,328,290.34,328.54,290.55,324.91Z" style="fill: rgb(125, 239, 156); transform-origin: 313.937px 324.137px;" id="el1nb1o7np1va" class="animable"></path><g id="elz8swqnh48lr"><ellipse cx="217.96" cy="330.77" rx="22.36" ry="15.4" style="fill: rgb(125, 239, 156); opacity: 0.2; transform-origin: 217.96px 330.77px; transform: rotate(-59.23deg);" class="animable"></ellipse></g><g id="elt102cwiy7hh"><path d="M264.56,304.11c5.06-2.19,10.29-1.38,11.68,1.83s-1.58,7.58-6.64,9.77-10.29,1.38-11.68-1.82S259.51,306.31,264.56,304.11Z" style="fill: rgb(125, 239, 156); opacity: 0.2; transform-origin: 267.08px 309.91px;" class="animable"></path></g><path d="M209.19,325.18c-.21-3.63-6-5.62-10.9-4.79h0c-12-8.5-17.45-21.48-19-25.7a1.39,1.39,0,0,0-1.88-.79c-30.15,13.19-8.4,57.83,14.1,60.83,8,1.07,17.28-16,11.72-26.51C203.27,328.22,209.39,328.81,209.19,325.18Z" style="fill: rgb(125, 239, 156); transform-origin: 185.914px 324.277px;" id="el633pakds60s" class="animable"></path></g><g id="freepik--Hearts--inject-83" class="animable" style="transform-origin: 245.937px 173.212px;"><path d="M238.25,109.45h0a13.91,13.91,0,0,0-14.94,7.48,13.88,13.88,0,0,0-12.83,10.68,13.57,13.57,0,0,0,1.84,10.46,14.13,14.13,0,0,0,9,6.2l14.36,3a8.9,8.9,0,0,0,10.53-6.88l3-14.36a14.15,14.15,0,0,0-2.08-10.7A13.68,13.68,0,0,0,238.25,109.45Z" style="fill: rgb(125, 239, 156); transform-origin: 229.815px 128.342px;" id="elk7hm9wp1li8" class="animable"></path><g id="el86x50myn08f"><path d="M238.25,109.45h0a13.91,13.91,0,0,0-14.94,7.48,13.88,13.88,0,0,0-12.83,10.68,13.57,13.57,0,0,0,1.84,10.46,14.13,14.13,0,0,0,9,6.2l14.36,3a8.9,8.9,0,0,0,10.53-6.88l3-14.36a14.15,14.15,0,0,0-2.08-10.7A13.68,13.68,0,0,0,238.25,109.45Z" style="fill: rgb(255, 255, 255); opacity: 0.4; transform-origin: 229.815px 128.342px;" class="animable"></path></g><path d="M280.49,88.71h0a9.06,9.06,0,0,0-9.55-5.24,9.06,9.06,0,0,0-10.49-2.93,8.91,8.91,0,0,0-4.93,4.86,9.23,9.23,0,0,0,0,7.11l3.71,8.82a5.81,5.81,0,0,0,7.6,3.1l8.81-3.71a9.21,9.21,0,0,0,5-5.08A8.87,8.87,0,0,0,280.49,88.71Z" style="fill: rgb(125, 239, 156); transform-origin: 268.04px 92.4004px;" id="el7n60bliccd8" class="animable"></path><g id="elb16g0pm6pc"><path d="M280.49,88.71h0a9.06,9.06,0,0,0-9.55-5.24,9.06,9.06,0,0,0-10.49-2.93,8.91,8.91,0,0,0-4.93,4.86,9.23,9.23,0,0,0,0,7.11l3.71,8.82a5.81,5.81,0,0,0,7.6,3.1l8.81-3.71a9.21,9.21,0,0,0,5-5.08A8.87,8.87,0,0,0,280.49,88.71Z" style="fill: rgb(255, 255, 255); opacity: 0.6; transform-origin: 268.04px 92.4004px;" class="animable"></path></g><path d="M241.62,53.94h0a7.27,7.27,0,0,0-8.69.88,7.28,7.28,0,0,0-8.27,2.84,7.14,7.14,0,0,0-1,5.46,7.4,7.4,0,0,0,3.23,4.7L233.31,72a4.67,4.67,0,0,0,6.43-1.41l4.14-6.47a7.36,7.36,0,0,0,1-5.62A7.1,7.1,0,0,0,241.62,53.94Z" style="fill: rgb(125, 239, 156); transform-origin: 234.276px 62.8107px;" id="el4kqgv86m6ou" class="animable"></path><g id="elceg20x7vo3n"><path d="M241.62,53.94h0a7.27,7.27,0,0,0-8.69.88,7.28,7.28,0,0,0-8.27,2.84,7.14,7.14,0,0,0-1,5.46,7.4,7.4,0,0,0,3.23,4.7L233.31,72a4.67,4.67,0,0,0,6.43-1.41l4.14-6.47a7.36,7.36,0,0,0,1-5.62A7.1,7.1,0,0,0,241.62,53.94Z" style="fill: rgb(255, 255, 255); opacity: 0.8; transform-origin: 234.276px 62.8107px;" class="animable"></path></g><path d="M362.55,282.71h0a4.25,4.25,0,0,0-5.1.31,4.2,4.2,0,0,0-5.64,4.62,4.35,4.35,0,0,0,1.78,2.83l3.68,2.57a2.72,2.72,0,0,0,3.79-.67l2.57-3.68a4.28,4.28,0,0,0,.7-3.26A4.17,4.17,0,0,0,362.55,282.71Z" style="fill: rgb(125, 239, 156); transform-origin: 358.079px 287.769px;" id="elcksswapr6hm" class="animable"></path><g id="el6xyoezala8d"><path d="M362.55,282.71h0a4.25,4.25,0,0,0-5.1.31,4.2,4.2,0,0,0-5.64,4.62,4.35,4.35,0,0,0,1.78,2.83l3.68,2.57a2.72,2.72,0,0,0,3.79-.67l2.57-3.68a4.28,4.28,0,0,0,.7-3.26A4.17,4.17,0,0,0,362.55,282.71Z" style="fill: rgb(255, 255, 255); opacity: 0.6; transform-origin: 358.079px 287.769px;" class="animable"></path></g><path d="M375.71,262.62h0a4.12,4.12,0,0,0-7.52-.8,2.8,2.8,0,0,0,.06,2.13l1.18,2.62a1.72,1.72,0,0,0,2.3.87l2.62-1.18a2.75,2.75,0,0,0,1.45-1.56A2.68,2.68,0,0,0,375.71,262.62Z" style="fill: rgb(125, 239, 156); transform-origin: 371.988px 263.663px;" id="elf02p1m8hcqw" class="animable"></path><g id="elo7eh5aenh0a"><path d="M375.71,262.62h0a4.12,4.12,0,0,0-7.52-.8,2.8,2.8,0,0,0,.06,2.13l1.18,2.62a1.72,1.72,0,0,0,2.3.87l2.62-1.18a2.75,2.75,0,0,0,1.45-1.56A2.68,2.68,0,0,0,375.71,262.62Z" style="fill: rgb(255, 255, 255); opacity: 0.5; transform-origin: 371.988px 263.663px;" class="animable"></path></g><path d="M363.53,242.66h0a1.45,1.45,0,0,0-1.76,0,1.46,1.46,0,0,0-2,1.51,1.53,1.53,0,0,0,.57,1l1.23.95a1,1,0,0,0,.7.19.91.91,0,0,0,.62-.36l.95-1.23a1.47,1.47,0,0,0,.29-1.11A1.38,1.38,0,0,0,363.53,242.66Z" style="fill: rgb(125, 239, 156); transform-origin: 361.954px 244.339px;" id="elwwzjyqj424t" class="animable"></path><g id="ellm2wbesg8vn"><path d="M363.53,242.66h0a1.45,1.45,0,0,0-1.76,0,1.46,1.46,0,0,0-2,1.51,1.53,1.53,0,0,0,.57,1l1.23.95a1,1,0,0,0,.7.19.91.91,0,0,0,.62-.36l.95-1.23a1.47,1.47,0,0,0,.29-1.11A1.38,1.38,0,0,0,363.53,242.66Z" style="fill: rgb(255, 255, 255); opacity: 0.8; transform-origin: 361.954px 244.339px;" class="animable"></path></g><path d="M126.53,257.25h0a4.26,4.26,0,0,0-5.09.51,4.27,4.27,0,0,0-4.83,1.66,4.19,4.19,0,0,0-.61,3.2,4.3,4.3,0,0,0,1.89,2.74l3.78,2.42a2.65,2.65,0,0,0,2,.37,2.72,2.72,0,0,0,1.71-1.19l2.42-3.78a4.33,4.33,0,0,0,.57-3.29A4.19,4.19,0,0,0,126.53,257.25Z" style="fill: rgb(125, 239, 156); transform-origin: 122.193px 262.422px;" id="elwpo05ei62r" class="animable"></path><g id="el501rnayz2fw"><path d="M126.53,257.25h0a4.26,4.26,0,0,0-5.09.51,4.27,4.27,0,0,0-4.83,1.66,4.19,4.19,0,0,0-.61,3.2,4.3,4.3,0,0,0,1.89,2.74l3.78,2.42a2.65,2.65,0,0,0,2,.37,2.72,2.72,0,0,0,1.71-1.19l2.42-3.78a4.33,4.33,0,0,0,.57-3.29A4.19,4.19,0,0,0,126.53,257.25Z" style="fill: rgb(255, 255, 255); opacity: 0.8; transform-origin: 122.193px 262.422px;" class="animable"></path></g><path d="M144.52,284.26h0a2.47,2.47,0,0,0-2.77-1.05,2.46,2.46,0,0,0-2.94-.4,2.4,2.4,0,0,0-1.15,1.49,2.52,2.52,0,0,0,.27,1.92l1.32,2.24a1.59,1.59,0,0,0,2.17.55l2.24-1.33a2.54,2.54,0,0,0,1.15-1.55A2.49,2.49,0,0,0,144.52,284.26Z" style="fill: rgb(125, 239, 156); transform-origin: 141.229px 285.862px;" id="el6mbaq7x2h5" class="animable"></path><g id="elmtlghixt8kl"><path d="M144.52,284.26h0a2.47,2.47,0,0,0-2.77-1.05,2.46,2.46,0,0,0-2.94-.4,2.4,2.4,0,0,0-1.15,1.49,2.52,2.52,0,0,0,.27,1.92l1.32,2.24a1.59,1.59,0,0,0,2.17.55l2.24-1.33a2.54,2.54,0,0,0,1.15-1.55A2.49,2.49,0,0,0,144.52,284.26Z" style="fill: rgb(255, 255, 255); opacity: 0.5; transform-origin: 141.229px 285.862px;" class="animable"></path></g></g><defs>     <filter id="active" height="200%">         <feMorphology in="SourceAlpha" result="DILATED" operator="dilate" radius="2"></feMorphology>                <feFlood flood-color="#32DFEC" flood-opacity="1" result="PINK"></feFlood>        <feComposite in="PINK" in2="DILATED" operator="in" result="OUTLINE"></feComposite>        <feMerge>            <feMergeNode in="OUTLINE"></feMergeNode>            <feMergeNode in="SourceGraphic"></feMergeNode>        </feMerge>    </filter>    <filter id="hover" height="200%">        <feMorphology in="SourceAlpha" result="DILATED" operator="dilate" radius="2"></feMorphology>                <feFlood flood-color="#ff0000" flood-opacity="0.5" result="PINK"></feFlood>        <feComposite in="PINK" in2="DILATED" operator="in" result="OUTLINE"></feComposite>        <feMerge>            <feMergeNode in="OUTLINE"></feMergeNode>            <feMergeNode in="SourceGraphic"></feMergeNode>        </feMerge>            <feColorMatrix type="matrix" values="0   0   0   0   0                0   1   0   0   0                0   0   0   0   0                0   0   0   1   0 "></feColorMatrix>    </filter></defs></svg>